<?xml version="1.0" encoding="UTF-8" standalone="no"?> <!-- Created with Vectornator for iOS (http://vectornator.io/) --><!DOCTYPE svg PUBLIC "-//W3C//DTD SVG 1.1//EN" "http://www.w3.org/Graphics/SVG/1.1/DTD/svg11.dtd">
<svg height="100%" style="fill-rule:evenodd;clip-rule:evenodd;stroke-linecap:round;stroke-linejoin:round;" xmlns:xlink="http://www.w3.org/1999/xlink" xmlns="http://www.w3.org/2000/svg" xml:space="preserve" width="100%" xmlns:vectornator="http://vectornator.io" version="1.1" viewBox="0 0 512 512">
<metadata>
<vectornator:setting key="Units" value="Points"/>
<vectornator:setting key="GuidesVisible" value="1"/>
<vectornator:setting key="RulersVisible" value="1"/>
<vectornator:setting key="SnapToGuides" value="1"/>
<vectornator:setting key="DynamicGuides" value="1"/>
</metadata>
<defs/>
<g id="Untitled" vectornator:layerName="Untitled">
<path d="M255.022+511.998L255.251+511.999L255.172+511.999C255.172+511.999+255.022+511.998+255.022+511.998ZM256.828+511.999L256.749+511.999L256.978+511.998C256.978+511.998+256.828+511.999+256.828+511.999ZM254.24+511.994L254.487+511.995L254.345+511.995C254.345+511.995+254.24+511.994+254.24+511.994ZM257.655+511.995L257.513+511.995L257.76+511.994C257.76+511.994+257.655+511.995+257.655+511.995ZM253.486+511.988L253.651+511.989L253.519+511.988C253.519+511.988+253.486+511.988+253.486+511.988ZM258.481+511.988L258.349+511.989L258.514+511.988C258.514+511.988+258.481+511.988+258.481+511.988ZM259.307+511.979L259.249+511.98L259.472+511.977C259.472+511.977+259.307+511.979+259.307+511.979ZM252.528+511.977L252.751+511.98L252.693+511.979C252.693+511.979+252.528+511.977+252.528+511.977ZM260.132+511.967L259.997+511.969L260.272+511.965L260.132+511.967ZM251.728+511.965L252.003+511.969L251.868+511.967L251.728+511.965ZM260.956+511.953L260.774+511.956L261.028+511.951C261.028+511.951+260.956+511.953+260.956+511.953ZM250.972+511.951L251.226+511.956L251.044+511.953C251.044+511.953+250.972+511.951+250.972+511.951ZM250.035+511.932L250.26+511.937L250.22+511.936C250.22+511.936+250.035+511.932+250.035+511.932ZM261.78+511.936L261.74+511.937L261.965+511.932C261.965+511.932+261.78+511.936+261.78+511.936ZM249.213+511.911L249.522+511.919L249.397+511.916C249.397+511.916+249.213+511.911+249.213+511.911ZM262.603+511.916L262.478+511.919L262.787+511.911C262.787+511.911+262.603+511.916+262.603+511.916ZM263.426+511.894L263.225+511.9L263.541+511.891C263.541+511.891+263.426+511.894+263.426+511.894ZM248.459+511.891L248.775+511.9L248.574+511.894C248.574+511.894+248.459+511.891+248.459+511.891ZM247.739+511.869L247.964+511.876L247.752+511.869L247.558+511.863C247.558+511.863+247.739+511.869+247.739+511.869ZM264.248+511.869L264.036+511.876L264.261+511.869L264.442+511.863C264.442+511.863+264.248+511.869+264.248+511.869ZM265.069+511.842L264.957+511.846L265.302+511.834C265.302+511.834+265.069+511.842+265.069+511.842ZM246.698+511.834L247.043+511.846L246.931+511.842C246.931+511.842+246.698+511.834+246.698+511.834ZM245.949+511.806L246.311+511.819L246.11+511.812C246.11+511.812+245.949+511.806+245.949+511.806ZM265.89+511.812L265.689+511.819L266.051+511.806C266.051+511.806+265.89+511.812+265.89+511.812ZM245.214+511.776L245.568+511.791L245.291+511.78C245.291+511.78+245.214+511.776+245.214+511.776ZM266.709+511.78L266.432+511.791L266.786+511.776C266.786+511.776+266.709+511.78+266.709+511.78ZM244.184+511.731L244.564+511.748L244.471+511.745C244.471+511.745+244.184+511.731+244.184+511.731ZM267.529+511.745L267.436+511.748L267.816+511.731C267.816+511.731+267.529+511.745+267.529+511.745ZM243.445+511.697L243.839+511.715L243.653+511.707C243.653+511.707+243.445+511.697+243.445+511.697ZM268.347+511.707L268.161+511.715L268.555+511.697C268.555+511.697+268.347+511.707+268.347+511.707ZM242.717+511.66L243.114+511.68L242.835+511.667C242.835+511.667+242.717+511.66+242.717+511.66ZM269.165+511.667L268.886+511.68L269.283+511.66C269.283+511.66+269.165+511.667+269.165+511.667ZM269.983+511.624L269.621+511.643L269.942+511.626L270.32+511.605C270.32+511.605+269.983+511.624+269.983+511.624ZM242.058+511.626L242.379+511.643L242.017+511.624L241.68+511.605C241.68+511.605+242.058+511.626+242.058+511.626ZM270.799+511.578L270.639+511.587L271.045+511.564C271.045+511.564+270.799+511.578+270.799+511.578ZM240.955+511.564L241.361+511.587L241.201+511.578C241.201+511.578+240.955+511.564+240.955+511.564ZM240.233+511.521L240.638+511.545L240.385+511.531C240.385+511.531+240.233+511.521+240.233+511.521ZM271.615+511.531L271.362+511.545L271.767+511.521C271.767+511.521+271.615+511.531+271.615+511.531ZM239.544+511.478L239.909+511.501L239.569+511.48L239.227+511.458L239.544+511.478ZM272.431+511.48L272.091+511.501L272.456+511.478L272.773+511.458L272.431+511.48ZM273.245+511.427L273.123+511.435L273.51+511.409C273.51+511.409+273.245+511.427+273.245+511.427ZM238.49+511.409L238.877+511.435L238.755+511.427C238.755+511.427+238.49+511.409+238.49+511.409ZM237.769+511.359L238.149+511.386L237.941+511.372C237.941+511.372+237.769+511.359+237.769+511.359ZM274.059+511.372L273.851+511.386L274.231+511.359C274.231+511.359+274.059+511.372+274.059+511.372ZM237.05+511.308L237.399+511.333L237.128+511.314C237.128+511.314+237.05+511.308+237.05+511.308ZM274.872+511.314L274.601+511.333L274.95+511.308C274.95+511.308+274.872+511.314+274.872+511.314ZM236.083+511.235L236.389+511.258L236.315+511.253C236.315+511.253+236.083+511.235+236.083+511.235ZM275.685+511.253L275.611+511.258L275.917+511.235C275.917+511.235+275.685+511.253+275.685+511.253ZM276.496+511.19L276.35+511.201L276.661+511.176C276.661+511.176+276.496+511.19+276.496+511.19ZM235.339+511.176L235.65+511.201L235.504+511.19C235.504+511.19+235.339+511.176+235.339+511.176ZM234.614+511.117L234.878+511.139L234.692+511.124C234.692+511.124+234.614+511.117+234.614+511.117ZM277.308+511.124L277.122+511.139L277.386+511.117C277.386+511.117+277.308+511.124+277.308+511.124ZM233.816+511.05L233.895+511.057L233.882+511.056C233.882+511.056+233.816+511.05+233.816+511.05ZM278.118+511.056L278.105+511.057L278.184+511.05C278.184+511.05+278.118+511.056+278.118+511.056ZM278.928+510.985L278.856+510.991L279.037+510.975C279.037+510.975+278.928+510.985+278.928+510.985ZM232.963+510.975L233.144+510.991L233.072+510.985C233.072+510.985+232.963+510.975+232.963+510.975ZM232.213+510.907L232.348+510.92L232.264+510.912C232.264+510.912+232.213+510.907+232.213+510.907ZM279.736+510.912L279.652+510.92L279.787+510.907C279.787+510.907+279.736+510.912+279.736+510.912ZM216+508.887C93.681+489.661+2.38419e-07+383.684+2.38419e-07+256C2.38419e-07+114.71+114.71-7.67829e-06+256-7.67829e-06C397.29-7.67829e-06+512+114.71+512+256C512+383.684+418.319+489.661+296+508.887L296+330L355.65+330L367+256L296+256L296+207.979C296+187.734+305.918+168+337.719+168L370+168L370+105C370+105+340.704+100+312.695+100C254.219+100+216+135.44+216+199.6L216+256L151+256L151+330L216+330C216+330+216+508.887+216+508.887Z" fill-rule="evenodd" fill="#ffffff" opacity="1"/>
</g>
</svg>
